# xmcd
#
# Track frame offsets:
#	150
#	17664
#	32969
#	51003
#	68655
#	88409
#	100386
#	120857
#	137643
#	154415
#	167544
#
# Disc length: 2534 seconds
#
# Revision: 0
# Processed by: cddbd v1.4PL0 Copyright (c) Steve Scherf et al.
# Submitted via: dBpowerAMP V4.0
#
DISCID=8c09e40b
DTITLE=El Diablo -  23rd Psalm Café
DYEAR=1900
DGENRE=
TTITLE0=Maryland Bed
TTITLE1=Bellies With Gold
TTITLE2=My Wild Rose
TTITLE3=Love Hurts
TTITLE4=Trailer Park Blues
TTITLE5=Shitkickers Inc.
TTITLE6=Jeruseleum Hills
TTITLE7=The Wandering One
TTITLE8=Intemperate Man
TTITLE9=Our Love's Gone Wrong Again
TTITLE10=Fists
EXTD=
EXTT0=
EXTT1=
EXTT2=
EXTT3=
EXTT4=
EXTT5=
EXTT6=
EXTT7=
EXTT8=
EXTT9=
EXTT10=
PLAYORDER=
